<?xml version="1.0" standalone="no"?>
<!DOCTYPE svg PUBLIC "-//W3C//DTD SVG 20010904//EN"
 "http://www.w3.org/TR/2001/REC-SVG-20010904/DTD/svg10.dtd">
<svg version="1.0" xmlns="http://www.w3.org/2000/svg"
 width="1280.000000pt" height="959.000000pt" viewBox="0 0 1280.000000 959.000000"
 preserveAspectRatio="xMidYMid meet">
<g transform="translate(0.000000,959.000000) scale(0.100000,-0.100000)"
fill="#000000" stroke="none">
<path d="M6112 9570 c-226 -23 -345 -44 -529 -90 -449 -114 -807 -332 -1008
-615 -71 -99 -119 -207 -178 -395 -30 -96 -79 -241 -110 -321 -95 -248 -113
-392 -104 -824 7 -337 22 -556 42 -637 31 -121 96 -208 156 -208 65 0 79 79
77 460 -2 260 0 294 20 390 27 125 58 223 123 387 58 147 83 239 104 393 30
215 69 356 135 490 40 79 109 178 135 193 22 12 19 -2 -24 -95 -104 -225 -150
-404 -161 -633 -9 -188 -6 -180 -104 -393 -60 -130 -98 -256 -117 -390 -11
-81 -10 -204 7 -607 6 -140 5 -154 -16 -209 -27 -72 -83 -134 -161 -181 -43
-26 -61 -44 -69 -69 -34 -105 112 -364 262 -464 56 -36 121 -28 288 38 109 43
150 54 212 58 89 5 121 -9 185 -82 47 -53 55 -75 92 -255 38 -184 76 -267 160
-348 34 -33 61 -63 61 -67 0 -4 -20 -36 -45 -70 -116 -163 -113 -244 9 -254
45 -4 57 -1 75 17 26 26 26 37 2 176 -11 61 -16 114 -12 118 5 4 28 4 52 -2
24 -5 61 -13 82 -16 20 -3 37 -12 37 -19 0 -7 -11 -46 -25 -87 -14 -41 -28
-100 -32 -131 -5 -54 -4 -58 26 -88 31 -32 32 -32 122 -28 85 3 92 5 115 31
36 42 34 131 -6 215 -17 35 -28 68 -24 73 11 18 194 7 194 -13 0 -5 -9 -21
-19 -36 -23 -31 -41 -121 -41 -198 0 -67 11 -74 124 -74 116 0 136 9 136 59 0
61 -28 181 -51 218 -12 19 -18 37 -14 41 9 9 201 16 222 8 14 -6 12 -10 -10
-34 -37 -38 -47 -72 -54 -178 l-6 -93 29 -12 c67 -28 224 -10 238 27 10 25
-24 188 -49 237 -17 34 -21 49 -12 52 16 6 241 24 245 20 2 -1 -4 -40 -12 -85
-20 -106 -21 -194 -1 -210 40 -33 180 -14 220 30 28 31 23 101 -13 190 -54
133 -55 128 84 277 154 164 171 190 195 303 25 112 40 149 81 196 78 89 190
106 348 52 122 -41 251 -46 315 -11 113 61 209 248 209 408 0 122 -16 145
-146 199 -81 34 -145 86 -169 140 -15 33 -19 67 -19 176 -1 253 -14 377 -51
481 -37 108 -35 140 11 164 40 21 73 19 96 -6 17 -19 18 -43 19 -362 2 -358 4
-378 47 -424 44 -47 107 -20 159 67 57 93 131 339 155 511 22 160 15 428 -15
558 -21 89 -96 348 -163 566 -81 260 -286 575 -519 801 -316 305 -590 439
-994 484 -55 6 -133 15 -173 20 -102 14 -248 10 -450 -10z m-664 -2180 c249
-27 417 -103 474 -214 41 -80 34 -282 -13 -413 -18 -49 -37 -74 -133 -168
-121 -119 -251 -217 -355 -267 -126 -61 -225 -36 -348 87 -108 108 -157 244
-183 510 -18 179 8 311 74 383 72 80 237 108 484 82z m1890 -25 c126 -30 237
-104 290 -194 24 -41 27 -58 30 -161 4 -111 -23 -363 -49 -465 -34 -130 -171
-197 -357 -175 -212 26 -587 340 -647 543 -17 59 -20 165 -4 221 28 100 164
189 354 231 84 18 305 18 383 0z m-1060 -641 c32 -22 87 -107 191 -295 140
-254 191 -393 191 -524 0 -113 -50 -221 -123 -265 -72 -45 -105 -21 -211 157
-33 54 -66 106 -74 116 -33 38 -70 11 -117 -83 -15 -30 -39 -67 -53 -82 -42
-45 -101 -34 -121 23 -23 66 -14 121 59 384 21 77 50 191 64 252 31 138 78
253 121 298 37 40 42 41 73 19z"/>
<path d="M16 8143 c-30 -89 -14 -346 36 -558 76 -328 313 -812 643 -1315 549
-839 1376 -1673 2480 -2502 613 -460 1229 -835 1990 -1213 910 -451 1678 -761
2695 -1090 276 -90 817 -255 833 -255 5 0 7 56 5 133 -6 165 -25 223 -97 290
-80 75 -94 81 -696 292 -192 67 -438 150 -545 185 -616 197 -1028 367 -1680
691 -983 491 -1731 949 -2255 1383 -261 216 -504 496 -430 496 8 0 67 -46 132
-103 547 -477 1325 -1012 2098 -1442 418 -233 1072 -521 1630 -720 324 -115
1433 -485 1530 -510 157 -41 233 -43 330 -11 105 36 193 86 239 136 56 62 51
72 -56 99 -143 37 -622 182 -828 251 -1211 405 -2593 1015 -3521 1556 -1025
597 -2211 1531 -2972 2343 -533 566 -1233 1440 -1437 1791 -43 74 -81 120 -99
120 -5 0 -16 -21 -25 -47z"/>
<path d="M12726 8167 c-12 -13 -47 -63 -75 -112 -128 -217 -477 -671 -921
-1195 -640 -757 -1297 -1373 -2135 -2002 -930 -697 -1756 -1179 -2895 -1689
-96 -43 -176 -83 -178 -87 -3 -9 46 -33 318 -154 l154 -69 206 101 c250 124
419 217 744 412 719 431 1281 827 1721 1212 100 87 135 110 135 88 0 -35 -169
-234 -301 -353 -476 -430 -1176 -880 -2154 -1385 -125 -64 -223 -120 -218
-125 19 -19 533 -199 568 -199 36 0 604 307 928 502 847 509 1728 1197 2423
1892 499 500 833 910 1145 1406 420 666 609 1159 609 1591 0 95 -21 189 -41
189 -6 0 -20 -10 -33 -23z m-396 -1122 c0 -13 -11 -53 -24 -87 -153 -407 -741
-1189 -1322 -1758 -260 -254 -444 -395 -444 -338 0 6 132 145 293 307 383 386
603 632 853 951 185 236 391 539 514 755 34 61 73 129 87 153 27 47 43 54 43
17z"/>
<path d="M7717 5648 c-47 -13 -89 -55 -161 -161 -109 -163 -148 -295 -191
-647 -30 -242 -64 -330 -160 -417 -58 -52 -199 -133 -211 -120 -4 3 1 34 10
69 10 35 16 86 14 113 l-3 50 -57 14 c-76 20 -127 4 -187 -55 -42 -42 -44 -46
-38 -92 3 -26 15 -69 27 -96 16 -39 18 -51 8 -58 -18 -11 -165 -10 -172 1 -3
5 1 24 9 43 20 50 39 161 31 191 -9 39 -78 61 -166 54 -105 -9 -110 -14 -110
-100 0 -40 7 -99 15 -131 8 -32 13 -62 9 -67 -8 -13 -171 -11 -179 2 -4 6 5
37 20 70 17 40 29 85 32 133 5 69 4 75 -17 86 -33 18 -248 10 -261 -10 -15
-22 0 -135 27 -210 13 -35 21 -67 18 -69 -6 -7 -139 -2 -176 5 -33 7 -33 5 -7
74 12 30 23 89 26 130 5 68 3 77 -16 95 -46 40 -218 29 -242 -17 -12 -22 -7
-151 7 -197 7 -23 6 -24 -30 -18 -61 10 -163 63 -202 104 -78 84 -104 158
-123 353 -12 127 -41 242 -117 460 -63 186 -90 243 -135 295 -59 67 -126 82
-197 46 -84 -43 -92 -113 -28 -274 101 -258 109 -316 96 -717 -4 -135 -3 -149
18 -195 31 -68 82 -119 245 -242 85 -64 180 -148 250 -221 273 -285 286 -294
422 -300 49 -2 162 3 249 12 211 21 308 20 506 -5 190 -24 288 -21 354 10 48
24 144 120 259 262 51 63 111 122 179 175 148 116 189 152 227 200 30 39 34
53 42 136 27 283 32 309 149 748 38 140 80 366 80 424 0 24 -6 48 -13 54 -20
17 -88 22 -130 10z"/>
<path d="M2488 2834 c-144 -34 -243 -126 -284 -262 -18 -57 -19 -212 -3 -278
42 -171 157 -272 322 -282 131 -8 214 44 252 157 43 129 135 75 277 -165 190
-321 280 -546 398 -994 176 -665 189 -699 315 -825 84 -85 159 -126 289 -160
111 -29 149 -30 266 -10 120 21 178 41 232 80 90 66 123 168 107 331 -17 162
-76 258 -180 288 -137 41 -227 2 -280 -122 -22 -50 -40 -60 -74 -38 -32 21
-102 110 -148 188 -65 110 -103 357 -95 613 5 162 24 215 114 326 73 89 79 79
-53 98 -123 19 -236 75 -284 142 -12 17 -62 108 -111 202 -121 233 -183 323
-308 448 -153 154 -282 230 -442 263 -93 19 -232 19 -310 0z"/>
<path d="M9925 2835 c-72 -16 -154 -47 -215 -82 -166 -96 -350 -296 -461 -501
-23 -42 -64 -120 -93 -172 -76 -141 -132 -192 -299 -273 -76 -37 -137 -70
-137 -75 0 -4 22 -37 49 -74 29 -41 57 -95 72 -140 21 -65 24 -90 23 -223 -2
-253 -41 -442 -117 -569 -51 -85 -142 -186 -168 -186 -14 0 -28 19 -50 65 -49
104 -101 134 -214 122 -141 -14 -213 -106 -235 -298 -27 -234 56 -358 265
-399 33 -6 79 -16 102 -21 66 -14 133 -11 224 12 131 32 202 72 294 164 126
125 143 167 279 690 148 568 217 754 396 1069 99 172 138 227 192 266 65 47
88 38 122 -50 44 -114 110 -155 241 -148 187 10 310 137 333 343 28 251 -78
423 -293 480 -72 18 -227 19 -310 0z"/>
<path d="M4635 2385 c-220 -74 -503 -166 -630 -205 -126 -39 -234 -75 -238
-79 -14 -14 30 -86 75 -125 70 -60 152 -80 311 -73 150 5 286 37 637 146 256
81 700 233 699 240 0 5 -429 222 -449 228 -3 0 -185 -59 -405 -132z"/>
<path d="M5045 1999 c-335 -115 -652 -225 -703 -245 -167 -65 -255 -140 -288
-248 -17 -58 -30 -265 -17 -283 11 -15 41 -7 523 142 367 114 792 256 1110
371 310 113 571 217 563 225 -5 4 -53 26 -108 49 -55 23 -174 78 -264 121 -90
43 -173 79 -185 78 -12 0 -295 -95 -631 -210z"/>
<path d="M2325 1806 c-57 -22 -68 -40 -62 -111 6 -75 52 -189 112 -276 25 -36
45 -69 45 -72 0 -12 -40 -7 -69 7 -29 16 -92 81 -110 115 -6 11 -25 60 -42
108 -65 186 -102 217 -259 217 -154 0 -188 -32 -177 -167 6 -82 48 -258 80
-332 53 -127 150 -240 242 -285 58 -28 209 -40 493 -40 263 0 611 16 649 31
89 33 72 266 -36 484 -85 171 -162 279 -223 311 -15 8 -52 14 -83 14 -46 0
-60 -4 -80 -25 -51 -50 -25 -155 74 -308 34 -51 61 -97 61 -100 0 -23 -47 1
-99 48 -71 67 -111 126 -156 236 -39 93 -55 115 -105 136 -51 22 -205 27 -255
9z"/>
<path d="M10160 1800 c-66 -22 -93 -53 -121 -138 -11 -34 -39 -89 -61 -122
-55 -84 -178 -189 -178 -153 0 4 18 34 39 67 65 100 95 174 99 247 4 62 2 67
-23 87 -33 26 -111 30 -154 7 -47 -24 -112 -105 -180 -223 -128 -225 -176
-469 -107 -549 30 -35 101 -41 536 -49 389 -8 555 3 628 38 73 35 166 137 212
233 55 112 102 295 104 403 1 82 0 84 -30 111 -53 48 -201 53 -286 10 -45 -23
-75 -73 -117 -192 -37 -105 -78 -167 -140 -207 -75 -50 -79 -39 -21 59 86 144
126 315 83 353 -46 41 -192 50 -283 18z"/>
<path d="M1180 1774 c-174 -47 -285 -169 -325 -360 -19 -90 -19 -254 0 -329
57 -223 234 -394 448 -431 129 -23 230 3 351 91 106 76 226 212 226 256 0 33
-32 21 -110 -42 -91 -72 -152 -94 -250 -87 -107 8 -170 49 -156 102 4 16 30
33 101 65 113 52 182 117 212 203 27 78 24 234 -5 309 -63 159 -185 240 -363
238 -41 0 -99 -7 -129 -15z"/>
<path d="M11273 1776 c-60 -19 -106 -50 -157 -107 -61 -68 -88 -141 -94 -256
-10 -194 61 -308 241 -387 71 -32 87 -43 87 -61 0 -52 -78 -84 -205 -84 -109
-1 -146 14 -226 87 -67 61 -89 66 -89 20 1 -43 32 -111 75 -164 101 -123 326
-201 501 -174 168 26 328 150 403 312 48 104 61 163 61 286 -1 346 -178 544
-483 541 -40 0 -91 -6 -114 -13z"/>
</g>
</svg>
